<?xml version="1.0" encoding="utf-8"?>
<!-- Generator: Adobe Illustrator 25.0.0, SVG Export Plug-In . SVG Version: 6.00 Build 0)  -->
<svg version="1.1" id="katman_1" xmlns="http://www.w3.org/2000/svg" xmlns:xlink="http://www.w3.org/1999/xlink" x="0px" y="0px"
	 viewBox="0 0 560 400" style="enable-background:new 0 0 560 400;" xml:space="preserve">
<style type="text/css">
	.st0{fill:#253858;}
	.st1{fill:url(#SVGID_1_);}
	.st2{fill:url(#SVGID_2_);}
</style>
<g transform="matrix(.979708 0 0 .979708 30.0452 168.739)">
	<path class="st0" d="M140,40.5c0-13.2,7.7-22.8,20.9-22.8s20.8,9.6,20.8,22.8s-7.7,23-20.8,23S140,53.7,140,40.5z M328,62.6h-7.6
		v-7.2c-2.7,5.1-8.1,8.2-13.9,8.1c-10.1,0-15.9-7-15.9-19.1l0-25.8h7.6v26.6c0,7.9,3.2,11.4,10.4,11.4c7,0,11.9-4.7,11.9-13.5V18.6
		h7.6L328,62.6z M344.4,43.9c1.1,7.5,5.9,12.3,16.3,12.3c4.6,0,9.1-0.8,13.4-2.4v7c-3.6,1.9-9.2,2.6-13.6,2.6
		c-16.5,0-23.7-9.5-23.7-23c0-13.3,7.4-22.8,20.8-22.8c13.5,0,19,9.4,19,22.8v3.4H344.4z M478.2,43.9c1.1,7.5,5.9,12.3,16.3,12.3
		c4.6,0,9.1-0.8,13.4-2.4v7c-3.6,1.9-9.1,2.6-13.6,2.6c-16.5,0-23.7-9.5-23.7-23c0-13.3,7.4-22.8,20.8-22.8c13.5,0,19,9.4,19,22.8
		v3.4H478.2z M134.5,60c-3.6,2.4-9.3,3.4-15.3,3.4c-19,0-29.7-11.4-29.7-29.7c0-17.6,10.7-29.9,29.6-29.9c5.6,0,11.3,1.1,15.4,4v7.7
		c-4.1-2.6-8.7-4-15.4-4c-13.6,0-21.7,9-21.7,22.3s8.4,22.1,22.1,22.1c5.2,0,10.4-1.2,15-3.5L134.5,60z M464.6,61.4
		c-2.6,1.4-6.7,2-10.7,2c-15.7,0-23-9.5-23-23c0-13.3,7.3-22.8,23-22.8c3.6-0.1,7.2,0.6,10.5,2.1v7c-3.1-1.5-6.5-2.2-9.9-2.1
		c-11.4,0-16.1,7.2-16.1,15.8s4.8,15.8,16.3,15.8c3.4,0.1,6.8-0.4,10-1.6L464.6,61.4z M280.3,62.8c-7.2,0-11.8-3.4-11.8-11.5V0.2
		h7.6v50.2c0,4,2.6,5.4,5.9,5.4c0.7,0,1.5,0,2.2-0.1v6.8C282.9,62.8,281.6,62.9,280.3,62.8z M249,62.6h-7.4v-37h-7.1v-7h7.1v-4.8
		c0-8.2,4.6-13.7,14-13.7c1.7,0,3.4,0.2,5.1,0.7v7c-1.6-0.3-3.2-0.4-4.8-0.4c-4.7,0-7,2.7-7,6.7l0,4.6h11.3v7H249L249,62.6z
		 M393.1,62.6h-7.6v-44h7.6v7.2c2.7-5.1,8.1-8.2,13.9-8.1c10.1,0,15.9,7,15.9,19.1v25.8h-7.6V36c0-7.9-3.2-11.4-10.4-11.4
		c-7,0-11.9,4.7-11.9,13.5L393.1,62.6z M198.1,62.6h-7.6v-44h7.6v7.2c2.7-5.1,8.1-8.2,13.9-8.1c10.1,0,15.9,7,15.9,19.1v25.8h-7.6
		V36c0-7.9-3.2-11.4-10.4-11.4c-7,0-11.9,4.7-11.9,13.5L198.1,62.6z M147.4,40.5c0,8.4,4.1,15.9,13.6,15.9s13.4-7.6,13.4-15.9
		s-4-15.8-13.4-15.8S147.4,32.1,147.4,40.5L147.4,40.5z M344.3,37.5h24.5c-0.4-8.2-4.1-12.9-11.7-12.9
		C349.2,24.6,345.1,29.7,344.3,37.5L344.3,37.5z M478.1,37.5h24.5c-0.4-8.2-4.1-12.9-11.7-12.9C482.9,24.6,478.9,29.7,478.1,37.5
		L478.1,37.5z"/>
	
		<linearGradient id="SVGID_1_" gradientUnits="userSpaceOnUse" x1="-367.1933" y1="649.6523" x2="-366.1933" y2="649.6523" gradientTransform="matrix(-38.5319 -22.1414 -22.1414 38.5319 295.2233 -33094.8633)">
		<stop  offset="0" style="stop-color:#0052CC"/>
		<stop  offset="0.18" style="stop-color:#0052CC"/>
		<stop  offset="1" style="stop-color:#2684FF"/>
	</linearGradient>
	<path class="st1" d="M2.2,49.5c-0.7,1.1-1.4,2.3-2,3.3C-0.3,53.7,0,55,0.9,55.5l13,8c0.3,0.2,0.7,0.3,1.1,0.3c0.7,0,1.4-0.4,1.7-1
		c0.5-0.9,1.2-2,1.9-3.2c5.1-8.5,10.3-7.5,19.7-3l12.9,6.1c0.3,0.1,0.6,0.2,0.9,0.2c0.8,0,1.5-0.5,1.8-1.2l6.2-14c0.4-1,0-2.2-1-2.6
		c-2.7-1.3-8.1-3.8-13-6.2C28.5,30.5,13.6,31,2.2,49.5z"/>
	
		<linearGradient id="SVGID_2_" gradientUnits="userSpaceOnUse" x1="-345.3591" y1="641.0632" x2="-344.3591" y2="641.0632" gradientTransform="matrix(38.5417 22.1512 22.1512 -38.5417 -886.5206 32357.4258)">
		<stop  offset="0" style="stop-color:#0052CC"/>
		<stop  offset="0.18" style="stop-color:#0052CC"/>
		<stop  offset="1" style="stop-color:#2684FF"/>
	</linearGradient>
	<path class="st2" d="M60.5,17.8c0.7-1.1,1.4-2.3,2-3.3c0.6-0.9,0.3-2.2-0.7-2.7l-13-8c-0.3-0.2-0.7-0.3-1.1-0.3
		c-0.7,0-1.4,0.4-1.7,1c-0.5,0.9-1.2,2-1.9,3.2c-5.2,8.5-10.3,7.5-19.7,3L11.6,4.5c-0.3-0.1-0.6-0.2-0.9-0.2c-0.8,0-1.5,0.5-1.8,1.2
		l-6.2,14c-0.4,1,0,2.2,1,2.6c2.7,1.3,8.1,3.8,13,6.2C34.2,36.8,49.1,36.3,60.5,17.8z"/>
</g>
</svg>
